<?xml version="1.0" encoding="UTF-8" standalone="no"?>
<svg
   xmlns:dc="http://purl.org/dc/elements/1.1/"
   xmlns:cc="http://creativecommons.org/ns#"
   xmlns:rdf="http://www.w3.org/1999/02/22-rdf-syntax-ns#"
   xmlns:svg="http://www.w3.org/2000/svg"
   xmlns="http://www.w3.org/2000/svg"
   viewBox="0 0 499.29333 39.093334"
   height="39.093334"
   width="499.29333"
   xml:space="preserve"
   id="svg2"
   version="1.1"><metadata
     id="metadata8"><rdf:RDF><cc:Work
         rdf:about=""><dc:format>image/svg+xml</dc:format><dc:type
           rdf:resource="http://purl.org/dc/dcmitype/StillImage" /></cc:Work></rdf:RDF></metadata><defs
     id="defs6" /><g
     transform="matrix(1.3333333,0,0,-1.3333333,0,39.093333)"
     id="g10"><g
       transform="scale(0.1)"
       id="g12"><path
         id="path14"
         style="fill:#231f20;fill-opacity:1;fill-rule:nonzero;stroke:none"
         d="m 358.34,125.938 c 0,-4.282 0,-21.805 0.414,-25.086 -1.117,-1.6098 -3.129,-2.1372 -4.828,-2.0082 -2.27,3.0232 -6.414,7.8362 -16.672,19.5112 l -33.367,38.11 c -9.274,10.383 -13.836,15.797 -16.254,17.933 -0.434,0 -0.434,-1.582 -0.434,-9.152 v -27.758 c 0,-10.699 0.16,-23.832 2.563,-28.117 1.285,-2.113 3.703,-2.965 7.281,-3.539 l 3.121,-0.398 c 1.277,-1.036 1.141,-3.762 -0.289,-4.172 -5.262,0.265 -10.824,0.41 -16.266,0.41 -5.941,0 -9.8,-0.145 -14.796,-0.41 -1.149,0.715 -1.422,3.136 -0.278,4.172 l 3.121,0.66 c 2.719,0.461 5.27,1.008 6.301,3.277 1.824,4.426 1.824,16.867 1.824,28.117 v 33.782 c 0,11.113 0.153,13.402 -4.695,17.519 -1.578,1.254 -5.547,2.43 -7.551,2.879 l -2.152,0.41 c -0.985,0.836 -0.863,3.699 0.605,4.137 5.375,-0.586 13.211,-0.438 16.813,-0.438 2.961,0 6.387,0.153 9.801,0.438 2.449,-6.172 17.992,-24.102 22.957,-29.504 l 14.281,-15.406 c 5.996,-6.586 19.211,-21.657 20.672,-22.551 0.41,0.445 0.41,1.137 0.41,3.457 v 27.793 c 0,10.66 -0.129,23.801 -2.723,28.082 -1.281,2.117 -3.558,2.965 -7.121,3.582 l -3.273,0.41 c -1.266,0.965 -1.137,3.699 0.297,4.137 5.535,-0.285 10.824,-0.438 16.378,-0.438 6.125,0 9.836,0.153 14.981,0.438 1.16,-0.731 1.426,-3.172 0.277,-4.137 l -3.285,-0.73 c -2.711,-0.41 -5.109,-1.024 -6.144,-3.262 -1.969,-4.426 -1.969,-16.816 -1.969,-28.082 v -34.066" /><path
         id="path16"
         style="fill:#231f20;fill-opacity:1;fill-rule:nonzero;stroke:none"
         d="m 430.699,198.039 c -29.929,0 -51.031,-21.504 -51.031,-50.574 0,-25.399 18.523,-48.0236 50.766,-48.0236 28.746,0 50.164,20.9106 50.164,49.0036 0,25.953 -16.957,49.594 -49.899,49.594 z m -1.871,-5.684 c 22.711,0 32.395,-24.96 32.395,-46.476 0,-28.649 -13.129,-40.777 -29.387,-40.777 -24.375,0 -32.801,26.804 -32.801,46.464 0,30.379 15.559,40.789 29.793,40.789" /><path
         id="path18"
         style="fill:#231f20;fill-opacity:1;fill-rule:nonzero;stroke:none"
         d="m 524.688,183.805 c 0,5.996 -0.098,6.238 -3.825,6.238 h -4.226 c -13.09,0 -16.93,-1.563 -22.211,-13.086 -1.02,-0.859 -3.985,-0.422 -4.563,1.008 2.403,7.699 4.563,16.515 5.547,21.547 0.27,0.41 0.875,0.543 1.586,0.543 0.567,0 1.145,-0.133 1.41,-0.543 0.746,-3.582 2.739,-3.735 12.407,-3.735 h 50.566 c 6.973,0 9.125,0.438 10.84,3.735 0.562,0.258 1.136,0.543 1.699,0.543 0.852,0 1.586,-0.285 1.875,-0.707 -1.457,-5.828 -2.594,-18.114 -2.168,-22.676 -0.715,-1.176 -3.121,-1.453 -4.402,-0.445 -1.844,11.14 -4.551,13.816 -19.797,13.816 h -4.336 c -3.735,0 -3.871,-0.242 -3.871,-6.238 v -61.602 c 0,-15.101 1.312,-15.523 8.008,-16.25 l 5.125,-0.519 c 0.992,-1.036 0.867,-3.567 -0.274,-4.172 -8.297,0.265 -14.687,0.41 -20.965,0.41 -6.25,0 -12.984,-0.145 -22.093,-0.41 -1.145,0.605 -1.293,3.422 -0.286,4.172 l 5.985,0.66 c 6.672,0.586 7.969,1.008 7.969,16.109 v 61.602" /><path
         id="path20"
         style="fill:#231f20;fill-opacity:1;fill-rule:nonzero;stroke:none"
         d="m 601.441,122.203 c 0,-15.101 -1.277,-15.523 -7.988,-16.371 l -3.144,-0.398 c -1.254,-1.036 -0.856,-3.567 0.285,-4.172 6.558,0.265 12.98,0.41 19.261,0.41 6.262,0 12.668,-0.145 18.911,-0.41 1.187,0.605 1.347,3.136 0.308,4.172 l -3.121,0.398 c -6.699,0.848 -7.988,1.27 -7.988,16.371 v 18.25 c 0,2.992 0.148,3.149 4.414,3.149 4.695,0 6.289,-0.567 8.851,-4.844 3.418,-5.567 7.43,-13.438 11.266,-19.414 8.707,-13.25 16.121,-18.821 29.801,-18.821 4.957,0 7.691,0.477 9.394,0.872 0.399,0.73 0.399,2.293 -0.3,2.863 -1.692,0.14 -5.805,1.004 -9.832,4.426 -6.684,5.578 -13.844,17.671 -25.211,36.918 -0.575,0.863 -0.848,1.996 0,2.433 6.984,2.856 17.101,9.406 17.101,22.508 0,10.238 -5.285,16.969 -12.519,20.805 -6.293,3.425 -15.965,4.867 -27.117,4.867 -11.68,0 -23.797,-0.438 -32.786,-1.32 -1.117,-0.704 -1.117,-2.95 -0.132,-3.957 l 3.695,-0.407 c 6.707,-0.73 6.851,-2.445 6.851,-16.133 z m 16.524,61.313 c 0,6.527 0.148,7.015 7.562,7.015 12.407,0 19.692,-9.855 19.692,-21.133 0,-13.554 -6.43,-20.375 -20.406,-20.375 -6.848,0 -6.848,0.27 -6.848,4.829 v 29.664" /><path
         id="path22"
         style="fill:#231f20;fill-opacity:1;fill-rule:nonzero;stroke:none"
         d="m 705.867,175.219 c 0,15.105 -1.269,15.59 -7.984,16.554 l -2.281,0.305 c -0.954,0.965 -0.848,3.551 0.32,4.137 2.672,-0.113 5.68,-0.285 8.805,-0.285 3.152,-0.153 6.429,-0.153 9.558,-0.153 h 27.242 c 9.121,0 17.411,0.153 19.227,0.438 0.559,-2.445 1.43,-13.703 2.273,-19.813 -0.562,-1.183 -3.398,-1.433 -4.547,-0.586 -2.285,8.282 -4.425,11.832 -8.98,12.973 -3.277,1.012 -7.57,1.254 -11.398,1.254 h -9.559 c -6.145,0 -6.145,-0.242 -6.145,-8.359 v -24.125 c 0,-3.707 0.141,-3.852 3.457,-3.852 h 6.79 c 12.457,0 14.867,0.145 15.871,6.297 l 0.984,4.832 c 1.148,1.012 3.863,1.012 4.555,-0.141 -0.137,-3.836 -0.399,-8.961 -0.399,-14.257 0,-5.375 0.262,-10.418 0.399,-14.973 -0.692,-1.012 -3.407,-1.012 -4.555,-0.113 l -0.984,5.695 c -1.004,5.961 -3.414,6.25 -15.871,6.25 h -6.79 c -3.316,0 -3.457,-0.289 -3.457,-3.852 V 125.32 c 0,-7.23 0.27,-12.355 2.45,-14.797 1.699,-1.992 4.129,-3.132 16.101,-3.132 18.086,-0.289 21.235,3.867 26.211,15.406 1.297,0.988 3.738,0.562 4.567,-0.848 -0.829,-5.98 -4,-16.847 -5.985,-20.687 -3.14,0.133 -7.703,0.265 -13.683,0.265 -5.969,0.145 -13.114,0.145 -21.52,0.145 h -16.254 c -6.262,0 -14.957,-0.145 -21.383,-0.41 -1.136,0.605 -1.273,3.136 -0.25,4.172 l 5.231,0.519 c 6.715,0.727 7.984,1.149 7.984,16.25 v 53.016" /><path
         id="path24"
         style="fill:#231f20;fill-opacity:1;fill-rule:nonzero;stroke:none"
         d="m 833.465,122.203 c 0,-15.101 -1.266,-15.523 -7.969,-16.371 l -3.152,-0.398 c -0.957,-1.036 -0.844,-3.567 0.297,-4.172 6.257,0.265 12.687,0.41 18.109,0.41 2.68,0 5.695,-0.145 9.113,-0.41 3.422,-0.129 7.289,-0.41 11.563,-0.41 12.957,0 25.215,1.683 35.344,6.832 17.679,8.98 25.531,25.199 25.531,41.05 0,21.258 -12.153,36.329 -29.246,42.614 -10.383,3.738 -20.117,4.867 -33.617,4.867 -13.985,0 -25.399,-0.438 -35.641,-1.32 -1.156,-0.704 -1.156,-3.227 -0.145,-3.957 l 2.965,-0.297 c 6.719,-0.84 6.848,-2.555 6.848,-16.243 z m 16.543,55.762 c 0,6.707 0.133,9.683 1.137,10.515 1.003,0.887 5.597,2.051 11.519,2.051 23.844,0 40.231,-13.718 40.231,-41.922 0,-24.125 -11.387,-42.054 -36.758,-42.054 -15.149,0 -16.129,7.386 -16.129,21.23 v 50.18" /><path
         id="path26"
         style="fill:#231f20;fill-opacity:1;fill-rule:nonzero;stroke:none"
         d="m 976.398,136.625 c 4.004,0 4.43,0 5.864,-3.859 l 6.672,-19.395 c 1.859,-6.113 1.437,-6.965 -3.661,-7.539 l -3.175,-0.398 c -0.821,-0.907 -0.707,-3.457 0.445,-4.172 4.973,0.133 11.242,0.41 17.367,0.41 7.42,0 12.71,-0.145 18.55,-0.41 1,0.715 1,3.136 -0.15,4.172 l -2.13,0.398 c -7.26,1.27 -8,2.273 -11.27,11.824 l -20.547,59.731 c -2.265,6.418 -4.093,13.144 -6.375,19.535 -0.586,0.715 -1.316,1.117 -2.449,1.117 -0.301,0 -4.976,-5.809 -9.953,-6.82 0.422,-2.43 -0.867,-5.864 -2.738,-10.438 l -19.539,-50.722 c -2.965,-7.692 -5.258,-13.672 -6.977,-17.383 -2.141,-4.715 -3.687,-5.996 -7.816,-6.582 l -4.297,-0.66 c -0.973,-1.301 -0.832,-3.457 0.164,-4.172 4.976,0.265 9.402,0.41 14.082,0.41 5.859,-0.145 10.578,-0.145 15.109,-0.41 1.172,0.605 1.289,3.136 0.289,4.172 l -4.125,0.66 c -5.285,0.742 -5.84,1.164 -2.972,9.59 l 5.836,17.082 c 1.261,3.859 1.148,3.859 4.836,3.859 z m -16.683,6.41 c -3.383,0 -3.82,0 -2.277,4.102 l 5.968,16.699 c 2.602,6.707 3.727,10.254 4.278,11.266 h 0.277 c 0.738,-1.012 1.594,-3.707 4.023,-11.266 l 6.004,-17.109 c 1.141,-3.407 0.567,-3.692 -3.425,-3.692 h -14.848" /><path
         id="path28"
         style="fill:#231f20;fill-opacity:1;fill-rule:nonzero;stroke:none"
         d="m 1149.19,105.434 c 1.42,-0.602 1.26,-3.567 -0.27,-4.172 -6.17,0.265 -11.72,0.41 -17.42,0.41 -6.69,0 -12.84,-0.145 -19.09,-0.41 -1.15,0.605 -1.72,3.265 -0.3,4.172 l 3.85,0.66 c 5.72,0.871 6.12,2.011 6.12,11.711 v 45.05 13.243 h -0.28 c -3.88,-7.836 -5.84,-12.114 -8.55,-17.809 l -12.24,-25.098 c -4.86,-9.961 -12.01,-25.8 -14.58,-32.484 -0.56,-0.578 -2.68,-0.578 -3.7,0 -2.4,7.691 -8.54,21.66 -11.79,28.773 l -12.7,27.368 c -2.69,6.007 -6.56,14.996 -8.25,19.25 h -0.32 c -0.27,-6.981 -0.55,-18.102 -0.83,-24.078 -0.3,-8.7 -0.61,-21.407 -0.61,-33.067 0,-9.453 0.15,-11.695 6.31,-12.711 l 4.67,-0.808 c 1.02,-0.907 1.02,-3.567 -0.11,-4.172 -5.31,0.265 -9.7,0.41 -14.99,0.41 -4.56,0 -9.67,-0.145 -15.22,-0.41 -1.33,0.715 -1.33,3.422 -0.47,4.172 l 2.43,0.242 c 6.83,0.879 7.97,3.008 8.85,11.722 1.17,8.957 1.45,18.184 2.13,33.04 0.59,9.683 1.41,21.539 1.41,30.238 0,6.691 -2.09,9.648 -7.67,10.543 l -4.85,0.859 c -0.84,0.965 -0.74,3.699 0.57,4.137 4.28,-0.285 8.1,-0.438 13.4,-0.438 4.98,0 9.99,0 15.25,0.438 0.58,-8.567 4.28,-15.961 7.82,-23.684 l 15.71,-32.922 c 1.13,-2.39 4.84,-9.55 6.7,-12.82 2.25,4.129 4.29,8.145 7.43,14.809 l 13.38,27.39 c 4.55,9.391 9.14,17.782 11.51,27.227 3.87,-0.285 8.59,-0.438 11.72,-0.438 5.99,0 10.98,0.153 14.98,0.438 1.55,-0.586 1.83,-3.301 0.41,-4.137 l -4.69,-0.73 c -6.25,-0.817 -7.71,-3.262 -7.71,-10.84 0,-21.11 0.28,-42.203 1.29,-63.278 0.45,-9.546 1.99,-10.55 6.55,-11.136 l 4.15,-0.66" /><path
         id="path30"
         style="fill:#231f20;fill-opacity:1;fill-rule:nonzero;stroke:none"
         d="m 1179.68,175.219 c 0,15.105 -1.28,15.59 -7.98,16.554 l -2.28,0.305 c -0.99,0.965 -0.86,3.551 0.27,4.137 2.7,-0.113 5.7,-0.285 8.85,-0.285 3.13,-0.153 6.41,-0.153 9.56,-0.153 h 27.22 c 9.11,0 17.42,0.153 19.25,0.438 0.57,-2.445 1.43,-13.703 2.28,-19.813 -0.58,-1.183 -3.41,-1.433 -4.6,-0.586 -2.23,8.282 -4.41,11.832 -8.95,12.973 -3.29,1.012 -7.52,1.254 -11.41,1.254 h -9.54 c -6.13,0 -6.13,-0.242 -6.13,-8.359 v -24.125 c 0,-3.707 0.14,-3.852 3.42,-3.852 h 6.84 c 12.43,0 14.81,0.145 15.85,6.297 l 0.97,4.832 c 1.13,1.012 3.83,1.012 4.54,-0.141 -0.14,-3.836 -0.42,-8.961 -0.42,-14.257 0,-5.375 0.28,-10.418 0.42,-14.973 -0.71,-1.012 -3.41,-1.012 -4.54,-0.113 l -0.97,5.695 c -1.04,5.961 -3.42,6.25 -15.85,6.25 h -6.84 c -3.28,0 -3.42,-0.289 -3.42,-3.852 V 125.32 c 0,-7.23 0.3,-12.355 2.41,-14.797 1.73,-1.992 4.13,-3.132 16.13,-3.132 18.09,-0.289 21.24,3.867 26.24,15.406 1.27,0.988 3.71,0.562 4.56,-0.848 -0.85,-5.98 -4.02,-16.847 -6,-20.687 -3.15,0.133 -7.71,0.265 -13.69,0.265 -5.99,0.145 -13.11,0.145 -21.54,0.145 h -16.23 c -6.28,0 -14.98,-0.145 -21.41,-0.41 -1.1,0.605 -1.26,3.136 -0.28,4.172 l 5.29,0.519 c 6.7,0.727 7.98,1.149 7.98,16.25 v 53.016" /><path
         id="path32"
         style="fill:#231f20;fill-opacity:1;fill-rule:nonzero;stroke:none"
         d="m 274.762,275.047 c 0,8.879 -0.649,9.137 -6.039,10.32 l -1.86,0.371 c -0.875,0.672 -0.754,2.86 0.278,3.231 4.39,-0.227 8.41,-0.371 12.562,-0.371 4.098,0 8.11,0.144 13.137,0.371 1.035,-0.371 1.152,-2.559 0.226,-3.231 l -2.425,-0.371 c -5.551,-0.914 -6.082,-1.441 -6.082,-10.32 v -18.199 c 0,-12.883 4.281,-21.657 16.781,-21.657 11.617,0 16.652,8.774 16.652,21.524 v 12.004 c 0,12.922 -0.754,15.879 -6.316,16.648 l -2.738,0.371 c -0.875,0.793 -0.747,2.602 0.296,3.231 4.106,-0.227 7.082,-0.371 10.817,-0.371 3.75,0 6.605,0.144 10.707,0.371 1.055,-0.629 1.055,-2.559 0.129,-3.231 l -3.871,-0.371 c -3.352,-0.383 -4.356,-3.863 -4.356,-16.648 v -12.77 c 0,-16.515 -7.629,-25.152 -24.039,-25.152 -8.25,0 -14.418,1.672 -18.316,5.398 -3.871,3.856 -5.543,9.793 -5.543,18.219 v 20.633" /><path
         id="path34"
         style="fill:#231f20;fill-opacity:1;fill-rule:nonzero;stroke:none"
         d="m 416.457,268.719 c 0,12.922 -0.766,16.129 -5.535,16.648 l -4.125,0.371 c -0.899,0.793 -0.801,2.602 0.25,3.231 4.773,-0.227 7.723,-0.371 11.5,-0.371 3.723,0 6.59,0.144 10.683,0.371 1.012,-0.629 1.012,-2.559 0.129,-3.231 l -3.839,-0.371 c -3.379,-0.383 -4.399,-3.863 -4.399,-16.648 v -21.66 c 0,-2.594 0,-13.039 0.387,-14.993 -0.387,-0.769 -1.574,-1.437 -2.715,-1.14 -1.422,1.797 -4.023,4.48 -11.996,13.144 l -19.625,20.91 c -4.902,5.153 -8.258,8.512 -9.934,9.95 -0.511,0 -0.511,-1.438 -0.511,-5.426 v -17.043 c 0,-12.934 0.769,-16.266 5.543,-16.645 l 4.101,-0.41 c 1.051,-0.758 0.801,-2.562 -0.219,-3.222 -4.808,0.285 -7.777,0.41 -11.472,0.41 -3.793,0 -6.215,-0.125 -10.746,-0.41 -1.032,0.539 -1.032,2.578 -0.133,3.222 l 3.879,0.41 c 3.34,0.379 4.394,3.872 4.394,16.645 v 23.098 c 0,4.265 -0.133,6.082 -2.73,7.996 -1.012,0.793 -3.481,1.586 -4.762,1.812 l -1.941,0.371 c -0.887,0.793 -0.887,2.731 0.261,3.231 4.895,-0.371 8.379,-0.371 11.114,-0.371 1.8,0 3.589,0.144 5.179,0.371 2.547,-4.914 7.352,-10.449 12.598,-15.852 l 12.164,-12.508 c 2.84,-2.851 10.32,-11.031 11.734,-12.023 0.766,0.269 0.766,2.09 0.766,5.156 v 14.977" /><path
         id="path36"
         style="fill:#231f20;fill-opacity:1;fill-rule:nonzero;stroke:none"
         d="m 471.965,275.047 c 0,8.879 -0.52,9.406 -6.063,10.32 l -2.461,0.371 c -0.878,0.672 -0.777,2.86 0.282,3.231 5.031,-0.227 9.031,-0.371 13.132,-0.371 4.153,0 8.157,0.144 13.18,0.371 1.028,-0.371 1.153,-2.559 0.25,-3.231 l -2.445,-0.371 c -5.567,-0.914 -6.086,-1.441 -6.086,-10.32 v -28.891 c 0,-8.937 0.519,-9.414 6.086,-10.34 l 2.445,-0.41 c 0.903,-0.644 0.778,-2.812 -0.25,-3.222 -4.902,0.285 -9.191,0.41 -13.18,0.41 -4.101,0 -8.101,-0.125 -13.132,-0.41 -1.059,0.41 -1.16,2.578 -0.282,3.222 l 2.461,0.41 c 5.543,0.926 6.063,1.403 6.063,10.34 v 28.891" /><path
         id="path38"
         style="fill:#231f20;fill-opacity:1;fill-rule:nonzero;stroke:none"
         d="m 531.434,274.77 c -3.871,8.539 -4.371,9.156 -7.461,9.96 l -4.246,1.008 c -0.801,0.793 -0.934,2.602 0.105,3.231 3.359,-0.227 7.629,-0.371 11.602,-0.371 4.699,0 8.421,0.144 12.539,0.371 1.058,-0.5 1.179,-2.559 0,-3.231 l -2.715,-0.371 c -3.324,-0.519 -3.324,-2.191 -0.512,-8.523 l 6.332,-14.305 c 3.223,-7.367 5.402,-12.164 7.34,-16.383 2.613,5.407 4.793,10.821 7.238,16.223 2.707,5.941 6.328,14.887 7.61,18.629 0.929,2.715 0.757,3.59 -3.09,4.359 l -2.063,0.371 c -1.191,0.793 -0.75,2.477 0.25,3.231 3.77,-0.227 7.094,-0.371 10.582,-0.371 4.133,0 7.118,0.144 9.184,0.371 1.242,-0.5 1.539,-2.559 0.617,-3.231 l -3.617,-0.754 c -3.856,-0.8 -4.637,-1.953 -8.762,-10.699 l -9.801,-21.082 c -3.863,-8.246 -7.64,-17.637 -9.171,-21.906 -0.391,-0.371 -0.915,-0.5 -1.575,-0.5 -0.492,0 -1.023,0.129 -1.519,0.5 -1.172,3.351 -2.602,7.492 -4.274,11.105 l -14.593,32.368" /><path
         id="path40"
         style="fill:#231f20;fill-opacity:1;fill-rule:nonzero;stroke:none"
         d="m 620.93,275.047 c 0,8.879 -0.532,9.301 -5.442,10.32 l -1.804,0.371 c -0.934,0.535 -0.746,2.731 0.254,3.231 1.953,-0.129 3.89,-0.227 5.832,-0.227 2.058,-0.144 4.097,-0.144 6.164,-0.144 h 18.339 c 5.692,0 10.813,0.144 12.004,0.371 0.145,-1.559 0.782,-7.594 1.422,-13.168 -0.527,-1.031 -2.613,-1.137 -3.363,-0.242 -0.758,3.343 -1.547,5.023 -2.328,6.222 -2.043,3.067 -7.86,3.067 -10.926,3.067 h -5.711 c -4.535,0 -4.664,-0.118 -4.664,-4.09 v -14.36 c 0,-2.343 0,-2.593 2.445,-2.593 h 6.075 c 6.863,0 7.472,1.043 8.531,4.914 l 0.668,2.422 c 0.629,0.976 2.554,0.8 3.226,-0.215 -0.265,-3.742 -0.265,-6.078 -0.265,-9.051 0,-3.223 0,-5.535 0.265,-9.281 -0.672,-1.031 -2.597,-1.18 -3.226,-0.289 l -0.668,2.48 c -1.059,3.867 -1.668,4.875 -8.531,4.875 h -6.075 c -2.445,0 -2.445,-0.375 -2.445,-2.945 v -9.289 c 0,-3.883 0.258,-7.899 1.441,-9.27 1.157,-1.324 3.493,-1.824 10.817,-1.824 8.277,0 13.062,0.41 16.785,10.727 0.906,0.882 2.969,0.632 3.352,-0.528 -0.633,-5.418 -2.446,-11.883 -3.868,-14.347 -3.976,0.148 -7.711,0.285 -11.32,0.285 -3.641,0.125 -7.109,0.125 -10.605,0.125 h -11.375 c -4.106,0 -8.106,-0.125 -14.332,-0.41 -1.012,0.41 -1.137,2.578 -0.219,3.222 l 3.484,0.41 c 5.531,0.633 6.063,1.403 6.063,10.34 v 28.891" /><path
         id="path42"
         style="fill:#231f20;fill-opacity:1;fill-rule:nonzero;stroke:none"
         d="m 703.914,246.156 c 0,-8.937 -0.496,-9.164 -6.082,-10.34 l -1.91,-0.41 c -1.195,-0.515 -1.063,-2.812 0.211,-3.222 4.555,0.285 8.523,0.41 12.656,0.41 4.012,0 8.277,-0.125 13.711,-0.41 1.012,0.41 1.145,2.578 0.23,3.222 l -2.964,0.41 c -5.563,0.805 -6.09,1.403 -6.09,10.34 v 9.153 c 0,1.812 0.289,2.039 3.64,2.039 2.051,0 4.125,-0.5 5.184,-2.039 2.691,-4.133 6.168,-9.786 9.402,-13.934 5.692,-7.223 10.317,-9.68 18.067,-9.68 2.484,0 4.246,0.246 5.422,0.637 0.539,0.391 0.539,1.539 0,2.066 -2.071,0.098 -4.493,0.793 -6.832,2.696 -4.274,3.488 -9.95,9.801 -16.407,20.664 -0.386,0.633 -0.515,1.433 0,1.902 5.036,1.824 11.485,5.57 11.485,13.832 0,13.551 -13.016,15.477 -25.051,15.477 -7.055,0 -14.293,-0.227 -21.395,-0.754 -1.269,-0.422 -1.058,-3.074 0,-3.231 l 3.625,-0.531 c 2.938,-0.398 3.098,-2.566 3.098,-10.961 z m 9.762,35.485 c 0,3.343 0.933,3.601 5.691,3.601 9.047,0 13.578,-5.668 13.578,-12.125 0,-8.894 -4.402,-12.297 -12.761,-12.297 -6.352,0 -6.508,0 -6.508,3.235 v 17.586" /><path
         id="path44"
         style="fill:#231f20;fill-opacity:1;fill-rule:nonzero;stroke:none"
         d="m 797.73,258.922 c -6.191,3.242 -11.507,8.262 -11.507,15.492 0,9.402 7.246,15.992 20.297,15.992 4.488,0 7.601,-1.195 11.992,-1.937 1.058,-2.196 1.945,-7.094 1.824,-12.668 -0.406,-1.031 -2.758,-1.137 -3.359,-0.242 -1.055,4.527 -4.407,11.062 -11.989,11.062 -7.633,0 -10.523,-4.32 -10.523,-8.734 0,-4.649 3.539,-7.5 8.703,-10.215 l 8,-4.09 c 4.672,-2.379 10.422,-7.785 10.422,-16.434 0,-10.054 -8.235,-16.351 -21.016,-16.351 -7.898,0 -13.058,2.695 -14.879,3.965 -1.129,1.859 -2.675,6.472 -2.675,13.312 0.507,1.297 2.445,1.414 3.367,0.254 0.984,-4.656 6.66,-13.832 15.359,-13.832 6.574,0 10.824,3.395 10.824,9.324 0,4.121 -1.691,8.352 -9.007,12.129 l -5.833,2.973" /><path
         id="path46"
         style="fill:#231f20;fill-opacity:1;fill-rule:nonzero;stroke:none"
         d="m 865.254,275.047 c 0,8.879 -0.535,9.406 -6.09,10.32 l -2.422,0.371 c -0.926,0.672 -0.777,2.86 0.231,3.231 5.058,-0.227 9.035,-0.371 13.168,-0.371 4.121,0 8.113,0.144 13.187,0.371 1.02,-0.371 1.145,-2.559 0.219,-3.231 l -2.43,-0.371 c -5.547,-0.914 -6.074,-1.441 -6.074,-10.32 v -28.891 c 0,-8.937 0.527,-9.414 6.074,-10.34 l 2.43,-0.41 c 0.926,-0.644 0.801,-2.812 -0.219,-3.222 -4.926,0.285 -9.172,0.41 -13.187,0.41 -4.133,0 -8.11,-0.125 -13.168,-0.41 -1.008,0.41 -1.157,2.578 -0.231,3.222 l 2.422,0.41 c 5.555,0.926 6.09,1.403 6.09,10.34 v 28.891" /><path
         id="path48"
         style="fill:#231f20;fill-opacity:1;fill-rule:nonzero;stroke:none"
         d="m 939.332,281.504 c 0,3.344 -0.164,3.344 -2.723,3.344 h -4.027 c -7.848,0 -11.199,-0.793 -14.332,-9.645 -1.273,-0.789 -2.699,-0.433 -3.203,0.598 1.414,5.574 2.855,11.992 3.48,15.265 0.524,0.504 1.844,0.504 2.332,0 0.141,-2.597 1.95,-2.468 7.102,-2.468 h 35.875 c 4.777,0 5.707,0.144 6.719,2.468 0.89,0.504 1.929,0.266 2.34,-0.394 -1.055,-3.34 -1.543,-10.219 -1.321,-15.113 -0.496,-1.028 -2.707,-1.145 -3.219,-0.141 -0.89,8.398 -4.281,9.43 -12,9.43 h -4.394 c -2.484,0 -2.856,0 -2.856,-3.344 v -35.348 c 0,-8.937 0.543,-9.707 6.083,-10.34 l 3.496,-0.41 c 0.875,-0.644 0.777,-2.812 -0.262,-3.222 -5.332,0.285 -10.199,0.41 -14.199,0.41 -4.141,0 -8.778,-0.125 -14.196,-0.41 -1.062,0.41 -1.175,2.578 -0.269,3.222 l 3.484,0.41 c 5.559,0.633 6.09,1.403 6.09,10.34 v 35.348" /><path
         id="path50"
         style="fill:#231f20;fill-opacity:1;fill-rule:nonzero;stroke:none"
         d="m 1024.36,249.754 c 0,3.988 -0.38,5.031 -3.61,10.988 l -9.41,17.418 c -2.73,5.149 -4.01,6.293 -7.37,6.981 l -3.36,0.597 c -0.911,0.793 -0.633,2.86 0.37,3.231 4.29,-0.227 7.23,-0.371 11.89,-0.371 3.88,0 6.84,0.144 10.99,0.371 1.01,-0.5 1.41,-2.559 0.12,-3.231 l -1.8,-0.371 c -2.86,-0.637 -3.27,-1.441 -1.18,-5.406 l 4.78,-9.164 c 1.93,-3.887 3.86,-7.375 5.79,-10.695 2.07,3.48 4,6.543 6.22,10.695 l 5.16,9.433 c 1.94,3.586 2.16,4.754 -0.89,5.137 l -2.72,0.371 c -1.19,0.672 -1.06,2.731 0.25,3.231 3.9,-0.227 6.84,-0.371 9.81,-0.371 2.86,0 5.54,0.144 9.15,0.371 1.04,-0.371 1.29,-2.559 0.29,-3.231 l -3.09,-0.597 c -4.03,-0.793 -4.7,-1.586 -8.68,-8.039 l -8.01,-12.879 c -4.62,-7.375 -4.88,-8.649 -4.88,-12.414 v -6.969 c 0,-7.621 0.5,-8.391 6.05,-9.024 l 3.26,-0.41 c 0.87,-0.644 0.74,-2.812 -0.31,-3.222 -5.64,0.285 -9.92,0.41 -13.9,0.41 -4.16,0 -8.15,-0.125 -13.92,-0.41 -1.06,0.41 -1.21,2.578 -0.31,3.222 l 3.26,0.41 c 5.55,0.633 6.05,1.403 6.05,9.024 v 4.914" /><path
         id="path52"
         style="fill:#231f20;fill-opacity:1;fill-rule:nonzero;stroke:none"
         d="m 1135.78,290.816 c -18.72,0 -31.88,-13.175 -31.88,-30.355 0,-16.262 11.87,-29.254 31.88,-29.254 18.17,0 31.36,12.652 31.36,30.063 0,15.738 -10.6,29.546 -31.36,29.546 z m -0.93,-3.761 c 14.21,0 20.8,-13.938 20.8,-27.727 0,-17.676 -9.45,-24.437 -19.24,-24.437 -14.99,0 -21.05,14.343 -21.05,27.648 0,18.219 10.19,24.516 19.49,24.516" /><path
         id="path54"
         style="fill:#231f20;fill-opacity:1;fill-rule:nonzero;stroke:none"
         d="m 1199.77,275.074 c 0,8.914 -0.63,9.164 -5.43,10.313 l -1.54,0.386 c -0.89,0.672 -0.79,2.852 0.26,3.235 1.77,-0.121 3.61,-0.266 5.54,-0.266 1.95,-0.117 4.02,-0.117 6.07,-0.117 h 17.93 c 5.7,0 10.6,0.117 12.4,0.383 0.14,-1.555 0.25,-7.606 0.67,-13.184 -0.53,-1.293 -2.59,-1.41 -3.42,-0.238 -0.73,3.355 -1.53,5.031 -2.28,6.199 -2.21,3.223 -7.88,3.063 -10.99,3.063 h -5.02 c -4,0 -4.36,0 -4.36,-4.493 v -14.921 c 0,-2.391 0,-2.606 2.43,-2.606 h 6.95 c 6.86,0 7.52,1.055 8.53,4.871 l 0.67,2.461 c 0.64,0.914 2.54,0.766 3.19,-0.242 -0.21,-3.754 -0.21,-6.035 -0.21,-9.035 0,-3.246 0,-5.574 0.21,-9.293 -0.65,-1.031 -2.55,-1.176 -3.19,-0.254 l -0.67,2.441 c -1.01,3.86 -1.67,4.903 -8.53,4.903 h -6.95 c -2.43,0 -2.43,-0.379 -2.43,-2.961 v -9.563 c 0,-8.914 0.5,-9.797 6.05,-10.301 l 4.01,-0.425 c 0.88,-0.621 0.75,-2.813 -0.27,-3.235 -6.49,0.274 -10.72,0.422 -14.72,0.422 -4.12,0 -8.12,-0.148 -13.15,-0.422 -1.05,0.422 -1.19,2.614 -0.28,3.235 l 2.45,0.425 c 5.54,0.887 6.08,1.387 6.08,10.301 v 28.918" /><path
         id="path56"
         style="fill:#231f20;fill-opacity:1;fill-rule:nonzero;stroke:none"
         d="m 42.9844,256.617 c 0.9609,-2.812 2.414,-7.101 2.414,-7.101 0,0 4.418,0.886 7.3321,1.461 -1.9571,-2.231 -4.918,-5.633 -4.918,-5.633 0,0 2.9609,-3.383 4.9102,-5.629 -2.9063,0.594 -7.3243,1.449 -7.3243,1.449 0,0 -1.4531,-4.277 -2.414,-7.07 -0.9727,2.793 -2.418,7.07 -2.418,7.07 0,0 -4.4258,-0.855 -7.3398,-1.449 1.9648,2.246 4.9218,5.629 4.9218,5.629 0,0 -2.9609,3.402 -4.9218,5.633 2.914,-0.575 7.3398,-1.461 7.3398,-1.461 0,0 1.4453,4.289 2.418,7.101 z m -4.6406,-3.23 c -2.1719,0.433 -14.1485,2.801 -14.1485,2.801 0,0 8.0469,-9.184 9.4922,-10.844 -1.4453,-1.66 -9.4922,-10.836 -9.4922,-10.836 0,0 11.9766,2.359 14.1485,2.789 0.7031,-2.094 4.6406,-13.645 4.6406,-13.645 0,0 3.9414,11.551 4.6367,13.645 2.1758,-0.43 14.1484,-2.789 14.1484,-2.789 0,0 -8.0351,9.176 -9.4961,10.836 1.461,1.66 9.4961,10.844 9.4961,10.844 0,0 -11.9726,-2.368 -14.1484,-2.801 -0.6953,2.086 -4.6367,13.644 -4.6367,13.644 0,0 -3.9375,-11.558 -4.6406,-13.644" /><path
         id="path58"
         style="fill:#231f20;fill-opacity:1;fill-rule:nonzero;stroke:none"
         d="m 47.6719,78.9648 c 0,-0.0117 0,-0.0117 0,-0.0117 0.1054,0.0391 0.0508,0.0117 0,0.0117" /><path
         id="path60"
         style="fill:#231f20;fill-opacity:1;fill-rule:nonzero;stroke:none"
         d="m 73.0547,154.246 c 0.8242,1.82 1.3398,3.027 1.8437,3.914 0.3047,0.535 0.6836,0.637 1.1094,0.735 L 76.4609,159 c 0.0664,0.141 0.1133,0.414 -0.0273,0.496 -0.5195,-0.019 -1.1172,-0.047 -1.7578,-0.047 -0.5781,0 -1.1797,0.028 -1.918,0.047 -0.1172,-0.082 -0.1601,-0.355 -0.0273,-0.496 l 0.5156,-0.121 c 0.5273,-0.145 0.5859,-0.277 0.3047,-1.012 -0.9531,-2.476 -2.0156,-4.992 -2.9844,-7.254 -0.1719,0.41 -0.6641,1.477 -0.9766,2.285 l -1.3046,3.239 c -0.7149,1.847 -0.8672,2.242 -0.8672,2.406 0,0.152 0.1523,0.238 0.5351,0.336 L 68.3984,159 c 0.1758,0.109 0.1485,0.398 -0.0273,0.496 -0.9453,-0.019 -1.5352,-0.047 -2.3477,-0.047 -0.6992,0 -1.4648,0.028 -2.1718,0.047 -0.1563,-0.047 -0.1563,-0.355 -0.0625,-0.484 l 0.4492,-0.09 c 0.7265,-0.141 0.8945,-0.395 1.375,-1.625 l 3.1328,-7.625 c 0.3164,-0.758 0.6055,-1.637 0.8281,-2.375 0.0899,-0.051 0.2071,-0.082 0.3281,-0.082 0.1368,0 0.2774,0.031 0.3086,0.082 0.3125,0.914 1.1446,3.031 1.8829,4.695 l 0.9609,2.254" /><path
         id="path62"
         style="fill:#231f20;fill-opacity:1;fill-rule:nonzero;stroke:none"
         d="m 81.0781,150.102 c 0,-1.93 0.1367,-1.977 0.9766,-2.067 l 0.3867,-0.074 c 0.1289,-0.125 0.1094,-0.453 -0.0195,-0.527 -0.7852,0.031 -1.5899,0.058 -2.3555,0.058 -0.7851,0 -1.6094,-0.027 -2.375,-0.058 -0.1523,0.074 -0.1641,0.402 -0.0469,0.527 l 0.3946,0.074 c 0.8359,0.09 0.9804,0.137 0.9804,2.067 v 6.734 c 0,1.945 -0.1445,1.996 -0.9804,2.109 L 77.6445,159 c -0.1172,0.109 -0.1054,0.449 0.0469,0.496 0.7656,-0.019 1.5664,-0.047 2.375,-0.047 0.7656,0 1.5703,0.028 2.3555,0.047 0.1289,-0.047 0.1484,-0.387 0.0195,-0.496 l -0.3867,-0.055 c -0.8399,-0.113 -0.9766,-0.164 -0.9766,-2.109 v -6.734" /><path
         id="path64"
         style="fill:#231f20;fill-opacity:1;fill-rule:nonzero;stroke:none"
         d="m 88.4141,157.934 c 0,0.761 0,0.8 -0.4571,0.8 h -1 c -1.6211,0 -2.0937,-0.195 -2.75,-1.675 -0.1132,-0.118 -0.4843,-0.039 -0.5664,0.113 0.3086,1 0.5664,2.117 0.6875,2.777 0.0313,0.035 0.1172,0.055 0.2032,0.055 0.0625,0 0.1445,-0.02 0.1679,-0.055 0.0781,-0.472 0.3477,-0.5 1.5235,-0.5 h 7.1796 c 0.875,0 1.1368,0.047 1.3633,0.5 0.0508,0.028 0.1289,0.055 0.1992,0.055 0.1055,0 0.2032,-0.027 0.2266,-0.09 -0.1797,-0.766 -0.3242,-2.301 -0.2656,-2.883 -0.086,-0.16 -0.3867,-0.195 -0.5352,-0.07 -0.2304,1.418 -0.5664,1.773 -2.4492,1.773 h -0.9961 c -0.4844,0 -0.4844,-0.039 -0.4844,-0.8 v -7.832 c 0,-1.93 0.1563,-1.977 0.9766,-2.067 l 0.6328,-0.074 c 0.1328,-0.125 0.1172,-0.453 -0.0273,-0.527 -1.0313,0.031 -1.8203,0.058 -2.586,0.058 -0.7656,0 -1.6132,-0.027 -2.7304,-0.058 -0.1485,0.074 -0.1719,0.429 -0.0274,0.527 l 0.7344,0.086 c 0.8125,0.078 0.9805,0.125 0.9805,2.055 v 7.832" /><path
         id="path66"
         style="fill:#231f20;fill-opacity:1;fill-rule:nonzero;stroke:none"
         d="m 98.2422,152.488 c -0.4414,0 -0.6016,0.012 -0.3086,0.778 l 0.7734,2.125 c 0.3008,0.863 0.461,1.312 0.5391,1.422 h 0.0508 c 0.0625,-0.11 0.1679,-0.446 0.5039,-1.422 l 0.7462,-2.172 c 0.219,-0.621 0.086,-0.731 -0.445,-0.731 z m 2.1098,-0.828 c 0.527,0 0.671,0 0.855,-0.492 l 0.742,-2.191 c 0.239,-0.786 0.168,-0.899 -0.476,-0.942 l -0.395,-0.074 c -0.101,-0.121 -0.086,-0.441 0.059,-0.527 0.625,0.031 1.426,0.058 2.218,0.058 0.934,0 1.606,-0.027 2.336,-0.058 0.133,0.086 0.133,0.402 -0.015,0.527 l -0.274,0.074 c -0.941,0.137 -1.007,0.281 -1.418,1.496 l -2.601,7.606 c -0.305,0.797 -0.543,1.644 -0.836,2.468 -0.063,0.098 -0.156,0.157 -0.293,0.157 -0.043,0 -0.6563,-0.75 -1.2892,-0.883 0.043,-0.289 -0.0898,-0.727 -0.332,-1.305 l -2.4765,-6.476 c -0.3985,-0.965 -0.6758,-1.743 -0.8868,-2.215 -0.2773,-0.594 -0.4648,-0.758 -1.0156,-0.836 l -0.5312,-0.086 c -0.1329,-0.164 -0.1172,-0.441 0.0156,-0.527 0.6406,0.031 1.2109,0.058 1.793,0.058 0.7382,-0.027 1.3359,-0.027 1.9296,-0.058 0.1446,0.074 0.1563,0.402 0.0508,0.527 l -0.539,0.086 c -0.6875,0.094 -0.7461,0.144 -0.3829,1.219 l 0.6368,1.902 c 0.1797,0.492 0.2422,0.492 0.707,0.492 h 2.4184" /><path
         id="path68"
         style="fill:#231f20;fill-opacity:1;fill-rule:nonzero;stroke:none"
         d="m 68.6875,129.863 c 0,-1.925 -0.1562,-1.984 -0.9219,-2.078 l -0.3593,-0.055 c -0.1133,-0.136 -0.1016,-0.472 0.0195,-0.515 0.7383,0.027 1.4648,0.043 2.0976,0.043 0.3047,0 0.6563,-0.016 1.0508,-0.043 0.3867,-0.047 0.8399,-0.074 1.3281,-0.074 1.5,0 2.9258,0.222 4.0625,0.875 2.0547,1.144 2.9649,3.222 2.9649,5.211 0,2.722 -1.4024,4.636 -3.3711,5.421 -1.1992,0.489 -2.3242,0.625 -3.8828,0.625 -1.6133,0 -2.9297,-0.05 -4.1055,-0.168 -0.1445,-0.074 -0.1445,-0.41 -0.039,-0.5 l 0.3437,-0.027 c 0.7891,-0.109 0.8125,-0.328 0.8125,-2.082 z m 1.8906,7.078 c 0,0.868 0.0157,1.266 0.1446,1.364 0.1171,0.09 0.6484,0.226 1.3242,0.226 2.7461,0 4.6445,-1.718 4.6445,-5.304 0,-3.071 -1.3164,-5.375 -4.2383,-5.375 -1.7304,0 -1.875,0.976 -1.875,2.707 v 6.382" /><path
         id="path70"
         style="fill:#231f20;fill-opacity:1;fill-rule:nonzero;stroke:none"
         d="m 81.3203,136.625 c 0,1.898 -0.1758,1.969 -0.9961,2.086 l -0.289,0.066 c -0.1289,0.118 -0.1172,0.422 0.0195,0.496 0.707,-0.035 1.4961,-0.05 2.2812,-0.05 0.7813,0 1.5743,0.015 2.3555,0.05 0.1289,-0.074 0.1563,-0.378 0.0234,-0.496 l -0.3867,-0.066 c -0.8164,-0.117 -0.9648,-0.188 -0.9648,-2.086 v -4.176 c 0,-2.469 0.7305,-4.597 3.164,-4.597 2.3086,0 3.2657,1.796 3.2657,4.546 v 2.286 c 0,1.347 -0.0196,3.039 -0.3477,3.566 -0.1562,0.273 -0.4258,0.387 -0.8711,0.461 l -0.3476,0.047 c -0.1602,0.137 -0.1328,0.465 0.039,0.515 0.5821,-0.035 1.2578,-0.05 1.9414,-0.05 0.7461,0 1.2266,0.015 1.8633,0.05 0.1485,-0.089 0.1836,-0.378 0.043,-0.515 l -0.3985,-0.074 c -0.3203,-0.079 -0.6367,-0.161 -0.7617,-0.434 -0.2343,-0.543 -0.2343,-2.164 -0.2343,-3.566 v -2.18 c 0,-1.649 -0.2618,-3.18 -1.1719,-4.176 -0.9219,-1.019 -2.2461,-1.359 -3.4375,-1.359 -1.6641,0 -2.8203,0.355 -3.6406,1.148 -0.8086,0.793 -1.1485,2.059 -1.1485,3.906 v 4.602" /><path
         id="path72"
         style="fill:#231f20;fill-opacity:1;fill-rule:nonzero;stroke:none"
         d="m 97.1406,136.625 c 0,1.863 0.1485,1.906 0.9805,2.059 l 0.3789,0.062 c 0.1406,0.109 0.1328,0.453 -0.0352,0.527 -0.7812,-0.035 -1.5546,-0.05 -2.3515,-0.05 -0.7969,0 -1.5938,0.015 -2.461,0.05 -0.1601,-0.074 -0.1601,-0.418 -0.0351,-0.527 l 0.4883,-0.062 c 0.8203,-0.153 0.9765,-0.196 0.9765,-2.059 v -6.762 c 0,-1.883 -0.1562,-1.933 -0.9765,-2.047 l -0.5274,-0.086 c -0.1758,-0.101 -0.1054,-0.472 0.0391,-0.515 0.7305,0.027 1.6211,0.043 2.4961,0.043 h 1.8359 c 0.9883,0 1.8867,0 2.5778,-0.016 0.727,0 1.282,-0.019 1.649,-0.027 0.222,0.48 0.609,1.855 0.742,2.629 -0.098,0.136 -0.359,0.172 -0.543,0.078 -0.82,-1.856 -1.098,-1.942 -3.0391,-1.942 -1.4375,0 -1.7031,0.137 -1.9179,0.403 -0.2617,0.312 -0.2774,0.941 -0.2774,1.871 v 6.371" /><path
         id="path74"
         style="fill:#231f20;fill-opacity:1;fill-rule:nonzero;stroke:none"
         d="m 100.633,133.113 -0.028,-0.164 h 0.532 l 0.039,0.129 c 0.179,0.477 0.39,1.074 1.121,1.074 0.254,-0.011 0.523,-0.078 1.242,-0.418 l 0.191,-0.086 c 1.43,-0.671 1.618,-0.75 2.094,-0.738 0.774,-0.027 1.672,0.606 1.86,2.02 l 0.027,0.133 -0.555,-0.008 -0.035,-0.094 c -0.152,-0.777 -0.508,-1.137 -1.105,-1.137 -0.325,0.012 -0.442,0.043 -1.664,0.629 -1.161,0.524 -1.532,0.641 -1.93,0.641 0,0 -1.473,0.105 -1.789,-1.981" /><path
         id="path76"
         style="fill:#231f20;fill-opacity:1;fill-rule:nonzero;stroke:none"
         d="m 173.434,113.344 c 0,0 -7.313,-4.672 -27.629,-2.055 -20.297,2.617 -27.457,-2.285 -27.457,-2.285 v 64.785 c 0,0 5.902,4.895 26.207,2.293 20.297,-2.625 28.879,0.777 28.879,0.777 z m -60.071,-4.289 c 0,0 -7.168,4.902 -27.4607,2.289 -20.3007,-2.621 -27.621,2.062 -27.621,2.062 v 63.492 c 0,0 8.5742,-3.394 28.875,-0.777 20.3167,2.625 26.2067,-2.269 26.2067,-2.269 z m 65.008,64.992 v 9.539 c 0,0 -12.465,-5.496 -33.816,-2.461 -20.278,2.895 -28.707,-2.664 -28.707,-2.664 0,0 -8.453,5.559 -28.7386,2.664 -21.3516,-3.035 -33.8242,2.461 -33.8242,2.461 v -9.539 h -5.6758 v -72.258 h 58.9566 c 0,0 2.848,-3.6171 9.282,-3.6171 6.398,0 9.234,3.6171 9.234,3.6171 h 58.984 v 72.258 h -5.695" /><path
         id="path78"
         style="fill:#231f20;fill-opacity:1;fill-rule:nonzero;stroke:none"
         d="m 132.488,156.273 c -0.105,-0.144 -0.39,-0.168 -0.496,-0.05 -0.281,1.074 -0.957,2.519 -3.039,2.519 -1.969,0 -3.973,-1.547 -3.973,-5.066 0,-3.668 2.071,-5.465 4.09,-5.465 1.969,0 2.821,1.453 3.266,2.559 0.117,0.171 0.391,0.093 0.469,-0.09 -0.106,-1.137 -0.547,-2.266 -0.762,-2.602 -0.184,-0.031 -0.359,-0.09 -0.539,-0.129 -0.344,-0.136 -1.422,-0.429 -2.434,-0.429 -1.531,0 -2.882,0.351 -4.004,1.136 -1.265,0.926 -2.218,2.5 -2.218,4.77 0,1.992 0.812,3.566 1.968,4.558 1.161,0.954 2.75,1.454 4.317,1.454 0.887,0 1.976,-0.176 2.695,-0.387 0.195,-0.039 0.297,-0.051 0.43,-0.094 0.047,-0.418 0.078,-1.398 0.23,-2.684" /><path
         id="path80"
         style="fill:#231f20;fill-opacity:1;fill-rule:nonzero;stroke:none"
         d="m 135.555,156.836 c 0,1.945 -0.145,1.996 -1.012,2.121 L 134.262,159 c -0.106,0.109 -0.094,0.449 0.074,0.496 0.309,-0.004 0.676,-0.019 1.09,-0.019 0.367,-0.028 0.781,-0.028 1.164,-0.028 h 3.066 c 1.145,0 2.184,0.028 2.399,0.047 0.066,-0.281 0.183,-1.715 0.293,-2.492 -0.071,-0.168 -0.442,-0.195 -0.559,-0.078 -0.285,1.058 -0.555,1.496 -1.109,1.664 -0.418,0.105 -0.95,0.144 -1.422,0.144 h -0.918 c -0.754,0 -0.754,-0.039 -0.754,-1.07 v -3.285 c 0,-0.477 0.023,-0.492 0.414,-0.492 h 0.582 c 1.543,0 1.836,0.015 1.969,0.812 l 0.129,0.617 c 0.121,0.118 0.465,0.118 0.554,-0.011 -0.031,-0.504 -0.058,-1.129 -0.058,-1.821 0,-0.683 0.027,-1.328 0.058,-1.89 -0.089,-0.125 -0.433,-0.125 -0.554,-0.043 l -0.129,0.726 c -0.133,0.754 -0.426,0.817 -1.969,0.817 H 138 c -0.391,0 -0.414,-0.063 -0.414,-0.496 v -2.086 c 0,-0.93 0.035,-1.582 0.309,-1.891 0.21,-0.266 0.238,-0.41 1.718,-0.41 2.246,-0.039 2.371,0.512 2.981,1.965 0.136,0.133 0.469,0.086 0.57,-0.11 -0.101,-0.773 -0.5,-2.136 -0.754,-2.632 -0.379,0.031 -0.687,0.031 -1.426,0.031 -0.738,0.027 -1.351,0.027 -2.402,0.027 h -1.992 c -0.77,0 -1.848,-0.027 -2.641,-0.058 -0.136,0.074 -0.16,0.402 -0.039,0.527 l 0.633,0.074 c 0.867,0.09 1.012,0.137 1.012,2.078 v 6.723" /><path
         id="path82"
         style="fill:#231f20;fill-opacity:1;fill-rule:nonzero;stroke:none"
         d="m 145.844,150.113 c 0,-1.941 -0.145,-1.988 -0.946,-2.078 l -0.351,-0.074 c -0.129,-0.125 -0.113,-0.453 0.035,-0.527 0.734,0.031 1.481,0.058 2.109,0.058 0.321,0 0.664,-0.027 1.067,-0.058 0.418,0 0.547,-0.055 1.051,-0.055 1.519,0 2.679,0.23 3.855,0.855 2.074,1.168 2.996,3.25 2.996,5.25 0,2.688 -1.414,4.633 -3.422,5.422 -1.203,0.473 -2.086,0.59 -3.66,0.59 -1.648,0 -2.668,-0.047 -3.879,-0.137 -0.117,-0.097 -0.117,-0.414 -0.011,-0.519 l 0.355,-0.043 c 0.801,-0.102 0.801,-0.309 0.801,-2.043 z m 1.929,7.082 c 0,0.852 0.016,1.227 0.145,1.344 0.105,0.102 0.074,0.242 0.758,0.242 2.804,0 4.726,-1.734 4.726,-5.304 0,-3.079 -1.359,-5.364 -4.312,-5.364 -1.777,0 -1.317,0.953 -1.317,2.711 v 6.371" /><path
         id="path84"
         style="fill:#231f20;fill-opacity:1;fill-rule:nonzero;stroke:none"
         d="m 163.164,159.762 c -3.453,0 -5.887,-2.742 -5.887,-6.442 0,-3.242 2.145,-6.105 5.864,-6.105 3.316,0 5.793,2.644 5.793,6.234 0,3.305 -1.969,6.313 -5.77,6.313 z m -0.223,-0.723 c 2.629,0 3.735,-3.195 3.735,-5.906 0,-3.664 -1.5,-5.203 -3.387,-5.203 -2.805,0 -3.769,3.41 -3.769,5.922 0,3.855 1.793,5.187 3.421,5.187" /><path
         id="path86"
         style="fill:#231f20;fill-opacity:1;fill-rule:nonzero;stroke:none"
         d="m 127.316,127.73 c -0.304,0.375 -0.543,1.618 -0.527,2.778 0.098,0.156 0.422,0.156 0.527,0.043 0.34,-0.918 1.297,-2.856 3.008,-2.856 1.34,0 2.082,0.832 2.082,1.938 0,1.031 -0.468,1.855 -1.777,2.64 l -0.766,0.438 c -1.332,0.758 -2.484,1.855 -2.484,3.48 0,1.789 1.324,3.321 3.891,3.321 0.914,0 1.57,-0.203 2.414,-0.375 0.179,-0.414 0.375,-1.602 0.375,-2.446 -0.11,-0.16 -0.426,-0.195 -0.575,-0.062 -0.25,0.937 -0.871,2.16 -2.375,2.16 -1.418,0 -2.007,-0.937 -2.007,-1.902 0,-0.75 0.515,-1.586 1.695,-2.203 l 1.086,-0.61 c 1.14,-0.605 2.414,-1.73 2.414,-3.566 0,-2.067 -1.539,-3.539 -4.09,-3.539 -1.613,0 -2.523,0.543 -2.891,0.761" /><path
         id="path88"
         style="fill:#231f20;fill-opacity:1;fill-rule:nonzero;stroke:none"
         d="m 137.66,136.496 c 0,1.652 -0.019,1.934 -0.765,2.027 l -0.614,0.082 c -0.105,0.118 -0.105,0.426 0.032,0.5 1.222,0.145 2.281,0.168 3.89,0.168 1.645,0 2.891,-0.242 3.68,-0.742 0.906,-0.551 1.476,-1.511 1.476,-2.707 0,-2.758 -2.539,-3.5 -3.933,-3.5 -0.141,0 -0.293,0 -0.43,0.02 -0.125,0.09 -0.144,0.332 -0.074,0.453 1.613,0.316 2.195,1.512 2.195,2.992 0,1.481 -0.902,2.742 -2.527,2.742 -0.871,0 -0.871,-0.043 -0.871,-0.734 v -7.934 c 0,-1.906 0.136,-1.984 0.965,-2.062 l 0.656,-0.071 c 0.098,-0.136 0.086,-0.472 -0.035,-0.515 -1.043,0.027 -1.836,0.043 -2.61,0.043 -0.75,0 -1.543,-0.016 -2.281,-0.043 -0.133,0.043 -0.148,0.379 -0.016,0.515 l 0.282,0.04 c 0.828,0.109 0.98,0.187 0.98,2.093 v 6.633" /><path
         id="path90"
         style="fill:#231f20;fill-opacity:1;fill-rule:nonzero;stroke:none"
         d="m 148.051,129.863 c 0,-1.906 -0.156,-1.984 -0.981,-2.062 l -0.656,-0.071 c -0.109,-0.136 -0.101,-0.472 0.043,-0.515 0.777,0.027 1.848,0.043 2.633,0.043 h 2 c 1.055,0 1.93,0 2.656,-0.016 0.731,0 1.086,-0.019 1.465,-0.027 0.277,0.48 0.644,1.855 0.754,2.629 -0.11,0.16 -0.41,0.215 -0.57,0.078 -0.606,-1.461 -0.786,-1.965 -3.024,-1.926 -1.465,0 -1.781,0.121 -1.976,0.387 -0.258,0.312 -0.309,0.941 -0.309,1.883 v 2.015 c 0,0.473 0.039,0.5 0.422,0.5 h 0.844 c 1.531,0 1.843,-0.027 1.968,-0.804 l 0.098,-0.727 c 0.16,-0.125 0.492,-0.125 0.57,0.023 0,0.571 -0.043,1.207 -0.043,1.918 0,0.645 0.043,1.305 0.043,1.786 -0.078,0.168 -0.41,0.168 -0.57,0.031 l -0.098,-0.598 c -0.125,-0.816 -0.437,-0.816 -1.968,-0.816 h -0.844 c -0.383,0 -0.422,0 -0.422,0.48 v 3.352 c 0,1.043 0,1.062 0.754,1.062 h 1.191 c 0.465,0 1,-0.019 1.387,-0.136 0.57,-0.145 0.84,-0.602 1.129,-1.661 0.152,-0.125 0.484,-0.066 0.547,0.075 -0.106,0.769 -0.207,2.207 -0.281,2.507 -0.231,-0.035 -1.235,-0.05 -2.383,-0.05 h -3.34 c -0.387,0 -0.793,0 -1.172,0.015 -0.402,0 -0.777,0.012 -1.09,0.035 -0.16,-0.074 -0.172,-0.39 -0.058,-0.527 l 0.3,-0.035 c 0.825,-0.117 0.981,-0.188 0.981,-2.086 v -6.762" /><path
         id="path92"
         style="fill:#231f20;fill-opacity:1;fill-rule:nonzero;stroke:none"
         d="m 158.203,127.73 c -0.324,0.375 -0.547,1.618 -0.515,2.778 0.101,0.156 0.39,0.156 0.535,0.043 0.34,-0.918 1.269,-2.856 3.004,-2.856 1.308,0 2.078,0.832 2.078,1.938 0,1.031 -0.473,1.855 -1.782,2.64 l -0.761,0.438 c -1.321,0.758 -2.489,1.855 -2.489,3.48 0,1.789 1.301,3.321 3.864,3.321 0.918,0 1.601,-0.203 2.418,-0.375 0.203,-0.414 0.375,-1.602 0.375,-2.446 -0.078,-0.16 -0.403,-0.195 -0.559,-0.062 -0.266,0.937 -0.891,2.16 -2.383,2.16 -1.422,0 -2.004,-0.937 -2.004,-1.902 0,-0.75 0.528,-1.586 1.696,-2.203 l 1.097,-0.61 c 1.125,-0.605 2.399,-1.73 2.399,-3.566 0,-2.067 -1.535,-3.539 -4.086,-3.539 -1.629,0 -2.527,0.543 -2.887,0.761" /><path
         id="path94"
         style="fill:#231f20;fill-opacity:1;fill-rule:nonzero;stroke:none"
         d="m 215.84,181.84 c 0,-42.567 -13.117,-76.34 -31.883,-102.8986 0.016,0 0,0 0,0 0,0 -3.633,1.375 -9.301,1.375 -12.035,0 -15.64,-7.0703 -30.011,-7.0703 -8.707,0 -12.415,3.8555 -19.555,5.8555 v 17.3281 c 0,0 -2.125,-3.0274 -9.231,-3.0274 -7.144,0 -9.246,3.043 -9.246,3.043 v -17.293 c -7.1403,-2.0234 -10.8435,-5.8789 -19.5505,-5.8789 -14.3594,0 -17.9648,7.0782 -30.0078,7.0782 -5.7344,0 -9.3828,-1.3868 -9.3828,-1.3868 0,0 -0.0547,-0.0234 0,0 C 28.8984,105.512 15.8008,139.25 15.8008,181.84 l -0.0039,91.105 H 115.824 215.855 Z M 155.996,47.3828 c -2.976,-2.5898 -4.34,-3.414 -7.109,-3.9961 -1.379,-0.2812 -4.266,-0.4062 -4.266,-0.4062 -11.781,0 -14.402,7.0781 -28.773,7.0781 -14.395,0 -17.0003,-7.0781 -28.7855,-7.0781 0,0 -2.8867,0.125 -4.2539,0.4062 -2.7734,0.5821 -4.1367,1.4063 -7.1328,3.9961 -5.8203,5.0391 -10.8633,10.3125 -16.1367,16.4141 10.8007,-0.0117 13.5078,-6.5508 27.5234,-6.5508 11.7852,0 14.3905,7.0742 28.7855,7.0742 14.371,0 16.992,-7.0742 28.773,-7.0742 14.027,0 16.672,6.5391 27.524,6.5508 -5.29,-6.1016 -10.329,-11.375 -16.149,-16.4141 z m -40.172,-28.914 c -5.738,3.2617 -11.273,6.6953 -17.1912,10.7851 4.6172,2.0508 8.6562,5.1602 17.2152,5.1602 8.488,0 12.578,-3.1094 17.187,-5.1602 -5.906,-4.0664 -11.504,-7.5391 -17.211,-10.7851 z m 0,270.2732 L 0,288.742 0.015625,183.461 C 0.015625,83.0625 63.7891,29.332 115.824,0 167.855,29.332 231.637,83.0625 231.637,183.461 l 0.008,105.281 H 115.824" /><path
         id="path96"
         style="fill:#231f20;fill-opacity:1;fill-rule:nonzero;stroke:none"
         d="m 125.039,202.113 h 39.867 l 13.446,-7.773 v 31.75 l -13.446,-7.781 h -39.867 l 0.027,-0.032 v 30.864 l 7.825,13.515 H 98.7852 l 7.8128,-13.515 V 218.309 H 66.7305 l -13.4453,7.781 v -31.75 l 13.4453,7.773 h 39.8675 v -16.179 c 0,0 5.367,-0.606 9.238,-2.77 3.855,2.164 9.23,2.77 9.23,2.77 v 16.179 h -0.027" /><path
         id="path98"
         style="fill:none;stroke:#231f20;stroke-width:5.76000023;stroke-linecap:butt;stroke-linejoin:miter;stroke-miterlimit:4;stroke-dasharray:none;stroke-opacity:1"
         d="M 1349.37,293.211 V 0" /><path
         id="path100"
         style="fill:#231f20;fill-opacity:1;fill-rule:nonzero;stroke:none"
         d="m 1497.12,105.828 c 17.17,0 20.57,7.988 20.74,27.875 l 11.22,-1.699 c 0,-23.797 -6.12,-36.2032 -31.79,-36.2032 -27.87,0 -36.2,17.5082 -36.2,67.9922 0,50.48 8.33,67.992 36.2,67.992 25.67,0 31.79,-12.406 31.79,-36.207 l -11.22,-1.699 c -0.17,19.887 -3.57,27.875 -20.74,27.875 -21.24,0 -24.81,-16.996 -24.81,-57.961 0,-40.969 3.57,-57.965 24.81,-57.965" /><path
         id="path102"
         style="fill:#231f20;fill-opacity:1;fill-rule:nonzero;stroke:none"
         d="m 1555.09,163.793 c 0,-42.668 3.91,-57.965 23.29,-57.965 19.38,0 23.29,15.297 23.29,57.965 0,42.664 -3.91,57.961 -23.29,57.961 -19.38,0 -23.29,-15.297 -23.29,-57.961 z m -11.39,0 c 0,49.461 7.14,67.992 34.68,67.992 27.54,0 34.68,-18.531 34.68,-67.992 0,-49.469 -7.14,-67.9922 -34.68,-67.9922 -27.54,0 -34.68,18.5232 -34.68,67.9922" /><path
         id="path104"
         style="fill:#231f20;fill-opacity:1;fill-rule:nonzero;stroke:none"
         d="m 1668.64,97.4961 -27.02,111.5119 0.85,-111.5119 h -11.22 V 230.086 h 16.32 l 27.2,-115.762 27.19,115.762 h 16.16 V 97.4961 h -11.06 l 0.69,111.5119 -27.04,-111.5119 h -12.07" /><path
         id="path106"
         style="fill:#231f20;fill-opacity:1;fill-rule:nonzero;stroke:none"
         d="m 1765.55,162.094 c 13.26,0 20.23,6.117 20.23,28.894 0,22.61 -6.97,29.067 -20.23,29.067 h -16.14 v -57.961 z m -16.14,-64.5979 h -11.23 V 230.086 h 28.05 c 18.02,0 30.94,-7.481 30.94,-39.098 0,-31.617 -12.92,-39.097 -30.77,-39.097 h -16.99 V 97.4961" /><path
         id="path108"
         style="fill:#231f20;fill-opacity:1;fill-rule:nonzero;stroke:none"
         d="m 1812.81,130.641 v 99.445 h 11.39 v -99.102 c 0,-16.828 2.21,-25.328 21.92,-25.328 19.72,0 21.94,8.5 21.94,25.328 v 99.102 h 11.38 v -99.445 c 0,-22.774 -5.6,-35.0121 -33.32,-35.0121 -27.7,0 -33.31,12.2381 -33.31,35.0121" /><path
         id="path110"
         style="fill:#231f20;fill-opacity:1;fill-rule:nonzero;stroke:none"
         d="m 1928.75,97.4961 h -11.22 V 220.055 h -25.16 v 10.031 h 61.54 v -10.031 h -25.16 V 97.4961" /><path
         id="path112"
         style="fill:#231f20;fill-opacity:1;fill-rule:nonzero;stroke:none"
         d="m 2020.55,230.086 v -10.031 h -41.98 V 170.59 h 36.37 v -10.031 h -36.37 v -53.032 h 45.03 V 97.4961 h -56.25 V 230.086 h 53.2" /><path
         id="path114"
         style="fill:#231f20;fill-opacity:1;fill-rule:nonzero;stroke:none"
         d="m 2067.99,164.301 c 13.43,0 20.06,4.929 20.06,27.879 0,22.945 -6.63,27.875 -20.06,27.875 h -16.66 v -55.754 z m -16.66,-66.8049 h -11.22 V 230.086 h 28.9 c 18.01,0 30.42,-5.953 30.42,-37.906 0,-24.821 -7.31,-33.828 -18.86,-36.719 l 21.41,-57.9649 h -12.57 l -19.72,56.7739 h -18.36 V 97.4961" /><path
         id="path116"
         style="fill:#231f20;fill-opacity:1;fill-rule:nonzero;stroke:none"
         d="m 2199.4,131.836 c 0,18.527 -5.44,23.117 -22.61,28.047 -15.65,4.59 -29.24,10.199 -29.24,35.867 0,24.477 8.33,36.207 32.13,36.207 26.85,0 29.4,-15.812 29.4,-35.871 l -11.05,-1.527 c 0,16.148 -1.36,27.367 -18.53,27.367 -13.77,0 -20.56,-6.629 -20.56,-26.012 0,-16.144 4.93,-20.734 21.25,-25.152 18.01,-4.93 30.59,-10.711 30.59,-38.586 0,-25.84 -11.56,-36.5471 -35.52,-36.5471 -25.67,0 -31.11,14.4451 -31.11,36.8831 l 11.05,1.535 c 0,-18.192 2.55,-28.391 20.22,-28.391 16.84,0 23.98,6.797 23.98,26.18" /><path
         id="path118"
         style="fill:#231f20;fill-opacity:1;fill-rule:nonzero;stroke:none"
         d="m 2261.1,105.828 c 17.17,0 20.57,7.988 20.74,27.875 l 11.22,-1.699 c 0,-23.797 -6.13,-36.2032 -31.79,-36.2032 -27.88,0 -36.21,17.5082 -36.21,67.9922 0,50.48 8.33,67.992 36.21,67.992 25.66,0 31.79,-12.406 31.79,-36.207 l -11.22,-1.699 c -0.17,19.887 -3.57,27.875 -20.74,27.875 -21.25,0 -24.82,-16.996 -24.82,-57.961 0,-40.969 3.57,-57.965 24.82,-57.965" /><path
         id="path120"
         style="fill:#231f20;fill-opacity:1;fill-rule:nonzero;stroke:none"
         d="m 2321.45,97.4961 h -11.21 V 230.086 h 11.21 V 97.4961" /><path
         id="path122"
         style="fill:#231f20;fill-opacity:1;fill-rule:nonzero;stroke:none"
         d="m 2395.39,230.086 v -10.031 h -41.98 V 170.59 h 36.38 v -10.031 h -36.38 v -53.032 h 45.04 V 97.4961 h -56.26 V 230.086 h 53.2" /><path
         id="path124"
         style="fill:#231f20;fill-opacity:1;fill-rule:nonzero;stroke:none"
         d="m 2458.47,150.531 12.41,-34.676 -0.52,42.325 v 71.906 h 10.72 V 97.4961 h -13.77 l -29.75,79.5549 -12.41,34.676 0.52,-42.325 0.16,-71.9059 h -10.88 V 230.086 h 13.94 l 29.58,-79.555" /><path
         id="path126"
         style="fill:#231f20;fill-opacity:1;fill-rule:nonzero;stroke:none"
         d="m 2535.31,105.828 c 17.17,0 20.57,7.988 20.74,27.875 l 11.22,-1.699 c 0,-23.797 -6.13,-36.2032 -31.79,-36.2032 -27.88,0 -36.2,17.5082 -36.2,67.9922 0,50.48 8.32,67.992 36.2,67.992 25.66,0 31.79,-12.406 31.79,-36.207 l -11.22,-1.699 c -0.17,19.887 -3.57,27.875 -20.74,27.875 -21.25,0 -24.82,-16.996 -24.82,-57.961 0,-40.969 3.57,-57.965 24.82,-57.965" /><path
         id="path128"
         style="fill:#231f20;fill-opacity:1;fill-rule:nonzero;stroke:none"
         d="m 2636.96,230.086 v -10.031 h -41.98 V 170.59 h 36.38 v -10.031 h -36.38 v -53.032 h 45.04 V 97.4961 h -56.26 V 230.086 h 53.2" /><path
         id="path130"
         style="fill:#231f20;fill-opacity:1;fill-rule:nonzero;stroke:none"
         d="m 2698.34,136.082 h 34.51 l -17.16,85.504 z m 25.68,95.531 28.04,-134.1169 h -11.38 l -5.79,28.7269 h -38.41 l -5.79,-28.7269 h -11.38 l 27.88,134.1169 h 16.83" /><path
         id="path132"
         style="fill:#231f20;fill-opacity:1;fill-rule:nonzero;stroke:none"
         d="m 2810.21,150.531 12.41,-34.676 -0.52,42.325 v 71.906 h 10.71 V 97.4961 h -13.77 l -29.74,79.5549 -12.41,34.676 0.51,-42.325 0.17,-71.9059 h -10.88 V 230.086 h 13.94 l 29.58,-79.555" /><path
         id="path134"
         style="fill:#231f20;fill-opacity:1;fill-rule:nonzero;stroke:none"
         d="m 2879.4,107.527 c 26.86,0 31.11,13.942 31.11,56.266 0,42.324 -4.25,56.262 -31.11,56.262 h -15.3 V 107.527 Z M 2852.88,97.4961 V 230.086 h 24.99 c 34.85,0 44.03,-14.789 44.03,-66.293 0,-51.504 -9.18,-66.2969 -44.03,-66.2969 h -24.99" /><path
         id="path136"
         style="fill:#231f20;fill-opacity:1;fill-rule:nonzero;stroke:none"
         d="m 3023.21,230.086 v -10.031 h -41.98 V 170.59 h 36.38 v -10.031 h -36.38 v -53.032 h 45.04 V 97.4961 h -56.26 V 230.086 h 53.2" /><path
         id="path138"
         style="fill:#231f20;fill-opacity:1;fill-rule:nonzero;stroke:none"
         d="m 3086.29,150.531 12.41,-34.676 -0.51,42.325 v 71.906 h 10.71 V 97.4961 h -13.77 l -29.75,79.5549 -12.41,34.676 0.52,-42.325 0.16,-71.9059 h -10.88 V 230.086 h 13.94 l 29.58,-79.555" /><path
         id="path140"
         style="fill:#231f20;fill-opacity:1;fill-rule:nonzero;stroke:none"
         d="m 3165,231.785 c 26.01,0 31.79,-12.406 31.79,-36.207 l -11.22,-1.699 c -0.17,19.887 -3.74,27.875 -20.73,27.875 -21.42,0 -26.53,-16.66 -26.53,-57.961 0,-41.309 3.07,-57.965 25.5,-57.965 10.03,0 16.83,1.699 22.1,4.078 v 45.899 h -17.51 v 9.855 h 28.39 v -62.383 c -9.52,-5.1012 -18.87,-7.4762 -33.15,-7.4762 -29.4,0 -36.55,18.5232 -36.55,67.9922 0,49.461 8.67,67.992 37.91,67.992" /><path
         id="path142"
         style="fill:#231f20;fill-opacity:1;fill-rule:nonzero;stroke:none"
         d="m 3227.56,97.4961 h -11.21 V 230.086 h 11.21 V 97.4961" /><path
         id="path144"
         style="fill:#231f20;fill-opacity:1;fill-rule:nonzero;stroke:none"
         d="m 3291.82,150.531 12.41,-34.676 -0.52,42.325 v 71.906 h 10.72 V 97.4961 h -13.77 l -29.75,79.5549 -12.41,34.676 0.52,-42.325 0.16,-71.9059 H 3248.3 V 230.086 h 13.94 l 29.58,-79.555" /><path
         id="path146"
         style="fill:#231f20;fill-opacity:1;fill-rule:nonzero;stroke:none"
         d="m 3387.7,230.086 v -10.031 h -41.99 V 170.59 h 36.38 v -10.031 h -36.38 v -53.032 h 45.04 V 97.4961 h -56.26 V 230.086 h 53.21" /><path
         id="path148"
         style="fill:#231f20;fill-opacity:1;fill-rule:nonzero;stroke:none"
         d="m 3460.46,230.086 v -10.031 h -41.98 V 170.59 h 36.38 v -10.031 h -36.38 v -53.032 h 45.04 V 97.4961 h -56.26 V 230.086 h 53.2" /><path
         id="path150"
         style="fill:#231f20;fill-opacity:1;fill-rule:nonzero;stroke:none"
         d="m 3507.9,164.301 c 13.43,0 20.06,4.929 20.06,27.879 0,22.945 -6.63,27.875 -20.06,27.875 h -16.66 v -55.754 z m -16.66,-66.8049 h -11.22 V 230.086 h 28.9 c 18.02,0 30.43,-5.953 30.43,-37.906 0,-24.821 -7.32,-33.828 -18.87,-36.719 l 21.42,-57.9649 h -12.58 L 3509.6,154.27 h -18.36 V 97.4961" /><path
         id="path152"
         style="fill:#231f20;fill-opacity:1;fill-rule:nonzero;stroke:none"
         d="m 3569.94,97.4961 h -11.21 V 230.086 h 11.21 V 97.4961" /><path
         id="path154"
         style="fill:#231f20;fill-opacity:1;fill-rule:nonzero;stroke:none"
         d="m 3634.2,150.531 12.41,-34.676 -0.51,42.325 v 71.906 h 10.71 V 97.4961 h -13.77 l -29.75,79.5549 -12.41,34.676 0.52,-42.325 0.16,-71.9059 h -10.87 V 230.086 h 13.93 l 29.58,-79.555" /><path
         id="path156"
         style="fill:#231f20;fill-opacity:1;fill-rule:nonzero;stroke:none"
         d="m 3712.91,231.785 c 26.01,0 31.79,-12.406 31.79,-36.207 l -11.22,-1.699 c -0.17,19.887 -3.74,27.875 -20.73,27.875 -21.42,0 -26.53,-16.66 -26.53,-57.961 0,-41.309 3.07,-57.965 25.5,-57.965 10.03,0 16.83,1.699 22.1,4.078 v 45.899 h -17.51 v 9.855 h 28.39 v -62.383 c -9.52,-5.1012 -18.87,-7.4762 -33.15,-7.4762 -29.4,0 -36.55,18.5232 -36.55,67.9922 0,49.461 8.67,67.992 37.91,67.992" /></g></g></svg>